<svg xmlns="http://www.w3.org/2000/svg" xmlns:xlink="http://www.w3.org/1999/xlink" version="1.1" data-diagram-type="CLASS" style="width:2803px;height:1017px;background:#FFFFFF;" width="2803px" height="1017px" viewBox="0 0 2803 1017" zoomAndPan="magnify" preserveAspectRatio="none" contentStyleType="text/css"><?plantuml 1.2026.7beta8?><defs/><g font-family="sans-serif" lengthAdjust="spacing"><!--cluster Game Data (ScriptableObjects)--><g class="cluster" data-qualified-name="Game Data .ScriptableObjects." id="ent0001" data-source-line="4"><rect x="1150" y="345.86" width="792" height="608.72" fill="none" style="stroke:#000;stroke-width:1.5;" rx="2.5" ry="2.5"/><text x="1423.562" y="360.855" fill="#000" font-size="14" textLength="244.877" font-weight="700">Game Data (ScriptableObjects)</text></g><!--cluster Enemy Data (ScriptableObjects)--><g class="cluster" data-qualified-name="Enemy Data .ScriptableObjects." id="ent0013" data-source-line="48"><rect x="7" y="337.71" width="458" height="608.72" fill="none" style="stroke:#000;stroke-width:1.5;" rx="2.5" ry="2.5"/><text x="109.703" y="352.705" fill="#000" font-size="14" textLength="252.595" font-weight="700">Enemy Data (ScriptableObjects)</text></g><!--cluster Entities (MonoBehaviours)--><g class="cluster" data-qualified-name="Entities .MonoBehaviours." id="ent0019" data-source-line="72"><rect x="489" y="757.8" width="637" height="245.67" fill="none" style="stroke:#000;stroke-width:1.5;" rx="2.5" ry="2.5"/><text x="702.763" y="772.795" fill="#000" font-size="14" textLength="209.474" font-weight="700">Entities (MonoBehaviours)</text></g><!--cluster Core Systems (MonoBehaviours & Statics)--><g class="cluster" data-qualified-name="Core Systems .MonoBehaviours . Statics." id="ent0023" data-source-line="99"><rect x="1357" y="7" width="793" height="278.27" fill="none" style="stroke:#000;stroke-width:1.5;" rx="2.5" ry="2.5"/><text x="1586.874" y="21.995" fill="#000" font-size="14" textLength="333.252" font-weight="700">Core Systems (MonoBehaviours &amp; Statics)</text></g><!--cluster Save System (Data & Statics)--><g class="cluster" data-qualified-name="Save System .Data . Statics." id="ent0026" data-source-line="127"><rect x="2174" y="35.46" width="615" height="499.15" fill="none" style="stroke:#000;stroke-width:1.5;" rx="2.5" ry="2.5"/><text x="2365.238" y="50.455" fill="#000" font-size="14" textLength="232.524" font-weight="700">Save System (Data &amp; Statics)</text></g><!--class Card--><g class="entity" data-qualified-name="Game Data .ScriptableObjects..Card" id="ent0002" data-source-line="6"><rect x="1374.01" y="380.86" width="239.972" height="105.156" fill="#F1F1F1" style="stroke:#181818;stroke-width:0.5;" rx="2.5" ry="2.5"/><ellipse cx="1434.617" cy="400.993" rx="11" ry="11" fill="#A9DCDF" style="stroke:#181818;stroke-width:1;"/><path d="M1434.726,396.337 L1433.57,401.415 L1435.898,401.415 L1434.726,396.337 Z M1433.242,394.102 L1436.226,394.102 L1439.586,406.493 L1437.133,406.493 L1436.367,403.43 L1433.086,403.43 L1432.336,406.493 L1429.898,406.493 L1433.242,394.102 Z " fill="#000"/><text x="1453.117" y="396.999" fill="#000" font-size="12" textLength="114.258" font-style="italic">«ScriptableObject»</text><text x="1493.747" y="412.824" fill="#000" font-size="14" textLength="32.997" font-style="italic">Card</text><line x1="1375.01" y1="421.126" x2="1612.982" y2="421.126" style="stroke:#181818;stroke-width:0.5;"/><text x="1380.01" y="438.121" fill="#000" font-size="14" textLength="189.54">+string CardName { get; }</text><text x="1380.01" y="454.418" fill="#000" font-size="14" textLength="227.972">+string CardDescription { get; }</text><text x="1380.01" y="470.714" fill="#000" font-size="14" textLength="170.393">+Sprite CardArt { get; }</text><line x1="1375.01" y1="478.016" x2="1612.982" y2="478.016" style="stroke:#181818;stroke-width:0.5;"/></g><!--class Major--><g class="entity" data-qualified-name="Game Data .ScriptableObjects..Major" id="ent0003" data-source-line="12"><rect x="1166.17" y="589.76" width="269.66" height="96.891" fill="#F1F1F1" style="stroke:#181818;stroke-width:0.5;" rx="2.5" ry="2.5"/><ellipse cx="1277.316" cy="605.76" rx="11" ry="11" fill="#A9DCDF" style="stroke:#181818;stroke-width:1;"/><path d="M1277.425,601.104 L1276.269,606.182 L1278.597,606.182 L1277.425,601.104 Z M1275.941,598.869 L1278.925,598.869 L1282.284,611.26 L1279.831,611.26 L1279.066,608.198 L1275.784,608.198 L1275.034,611.26 L1272.597,611.26 L1275.941,598.869 Z " fill="#000"/><text x="1297.816" y="610.607" fill="#000" font-size="14" textLength="38.869" font-style="italic">Major</text><line x1="1167.17" y1="621.76" x2="1434.83" y2="621.76" style="stroke:#181818;stroke-width:0.5;"/><line x1="1167.17" y1="629.76" x2="1434.83" y2="629.76" style="stroke:#181818;stroke-width:0.5;"/><text x="1172.17" y="646.755" fill="#000" font-size="14" textLength="240.133">+abstract void SubscribePassive()</text><text x="1172.17" y="663.052" fill="#000" font-size="14" textLength="257.66">+abstract void UnsubscribePassive()</text><text x="1172.17" y="679.349" fill="#000" font-size="14" textLength="203.007">+abstract void ActiveEffect()</text></g><!--class Hermit--><g class="entity" data-qualified-name="Game Data .ScriptableObjects..Hermit" id="ent0004" data-source-line="18"><rect x="1166.28" y="841.69" width="207.439" height="96.891" fill="#F1F1F1" style="stroke:#181818;stroke-width:0.5;" rx="2.5" ry="2.5"/><ellipse cx="1241.793" cy="857.69" rx="11" ry="11" fill="#ADD1B2" style="stroke:#181818;stroke-width:1;"/><path d="M1244.762,863.331 Q1244.184,863.628 1243.543,863.768 Q1242.903,863.924 1242.199,863.924 Q1239.699,863.924 1238.371,862.284 Q1237.059,860.628 1237.059,857.503 Q1237.059,854.378 1238.371,852.721 Q1239.699,851.065 1242.199,851.065 Q1242.903,851.065 1243.543,851.221 Q1244.199,851.378 1244.762,851.674 L1244.762,854.393 Q1244.137,853.815 1243.543,853.549 Q1242.949,853.268 1242.324,853.268 Q1240.981,853.268 1240.293,854.346 Q1239.606,855.409 1239.606,857.503 Q1239.606,859.596 1240.293,860.674 Q1240.981,861.737 1242.324,861.737 Q1242.949,861.737 1243.543,861.471 Q1244.137,861.19 1244.762,860.612 L1244.762,863.331 Z " fill="#000"/><text x="1262.293" y="862.537" fill="#000" font-size="14" textLength="47.913">Hermit</text><line x1="1167.28" y1="873.69" x2="1372.719" y2="873.69" style="stroke:#181818;stroke-width:0.5;"/><line x1="1167.28" y1="881.69" x2="1372.719" y2="881.69" style="stroke:#181818;stroke-width:0.5;"/><text x="1172.28" y="898.685" fill="#000" font-size="14" textLength="177.912">+void SubscribePassive()</text><text x="1172.28" y="914.982" fill="#000" font-size="14" textLength="195.439">+void UnsubscribePassive()</text><text x="1172.28" y="931.279" fill="#000" font-size="14" textLength="140.786">+void ActiveEffect()</text></g><!--class Minor--><g class="entity" data-qualified-name="Game Data .ScriptableObjects..Minor" id="ent0005" data-source-line="24"><rect x="1470.89" y="581.61" width="432.212" height="113.188" fill="#F1F1F1" style="stroke:#181818;stroke-width:0.5;" rx="2.5" ry="2.5"/><ellipse cx="1663.164" cy="597.61" rx="11" ry="11" fill="#A9DCDF" style="stroke:#181818;stroke-width:1;"/><path d="M1663.274,592.954 L1662.118,598.032 L1664.446,598.032 L1663.274,592.954 Z M1661.789,590.719 L1664.774,590.719 L1668.133,603.11 L1665.68,603.11 L1664.914,600.048 L1661.633,600.048 L1660.883,603.11 L1658.446,603.11 L1661.789,590.719 Z " fill="#000"/><text x="1683.664" y="602.457" fill="#000" font-size="14" textLength="39.163" font-style="italic">Minor</text><line x1="1471.89" y1="613.61" x2="1902.102" y2="613.61" style="stroke:#181818;stroke-width:0.5;"/><text x="1476.89" y="630.605" fill="#000" font-size="14" textLength="180.544">+int WisdomCost { get; }</text><text x="1476.89" y="646.902" fill="#000" font-size="14" textLength="237.508">+int MinWisdomRequired { get; }</text><text x="1476.89" y="663.199" fill="#000" font-size="14" textLength="201.141">+TargetType Target { get; }</text><line x1="1471.89" y1="670.501" x2="1902.102" y2="670.501" style="stroke:#181818;stroke-width:0.5;"/><text x="1476.89" y="687.496" fill="#000" font-size="14" textLength="420.212">+abstract void PlayCard(PlayerController, EnemyController)</text></g><!--class Sword--><g class="entity" data-qualified-name="Game Data .ScriptableObjects..Sword" id="ent0006" data-source-line="31"><rect x="1409" y="849.84" width="369.991" height="80.594" fill="#F1F1F1" style="stroke:#181818;stroke-width:0.5;" rx="2.5" ry="2.5"/><ellipse cx="1567.973" cy="865.84" rx="11" ry="11" fill="#ADD1B2" style="stroke:#181818;stroke-width:1;"/><path d="M1570.942,871.481 Q1570.364,871.778 1569.723,871.918 Q1569.083,872.074 1568.379,872.074 Q1565.879,872.074 1564.551,870.434 Q1563.239,868.778 1563.239,865.653 Q1563.239,862.528 1564.551,860.871 Q1565.879,859.215 1568.379,859.215 Q1569.083,859.215 1569.723,859.371 Q1570.379,859.528 1570.942,859.824 L1570.942,862.543 Q1570.317,861.965 1569.723,861.699 Q1569.129,861.418 1568.504,861.418 Q1567.161,861.418 1566.473,862.496 Q1565.786,863.559 1565.786,865.653 Q1565.786,867.746 1566.473,868.824 Q1567.161,869.887 1568.504,869.887 Q1569.129,869.887 1569.723,869.621 Q1570.317,869.34 1570.942,868.762 L1570.942,871.481 Z " fill="#000"/><text x="1588.473" y="870.687" fill="#000" font-size="14" textLength="43.545">Sword</text><line x1="1410" y1="881.84" x2="1777.991" y2="881.84" style="stroke:#181818;stroke-width:0.5;"/><text x="1415" y="898.835" fill="#000" font-size="14" textLength="139.952">-int damageAmount</text><line x1="1410" y1="906.137" x2="1777.991" y2="906.137" style="stroke:#181818;stroke-width:0.5;"/><text x="1415" y="923.132" fill="#000" font-size="14" textLength="357.991">+void PlayCard(PlayerController, EnemyController)</text></g><!--class TargetType--><g class="entity" data-qualified-name="Game Data .ScriptableObjects..TargetType" id="ent0007" data-source-line="36"><rect x="1813.89" y="849.84" width="112.213" height="80.594" fill="#F1F1F1" style="stroke:#181818;stroke-width:0.5;" rx="2.5" ry="2.5"/><ellipse cx="1828.89" cy="865.84" rx="11" ry="11" fill="#EB937F" style="stroke:#181818;stroke-width:1;"/><path d="M1832.999,871.84 L1825.281,871.84 L1825.281,859.449 L1832.999,859.449 L1832.999,861.606 L1827.734,861.606 L1827.734,864.278 L1832.499,864.278 L1832.499,866.434 L1827.734,866.434 L1827.734,869.684 L1832.999,869.684 L1832.999,871.84 Z " fill="#000"/><text x="1842.89" y="870.687" fill="#000" font-size="14" textLength="80.213">TargetType</text><line x1="1814.89" y1="881.84" x2="1925.103" y2="881.84" style="stroke:#181818;stroke-width:0.5;"/><text x="1819.89" y="898.835" fill="#000" font-size="14" textLength="60.683">ToPlayer</text><text x="1819.89" y="915.132" fill="#000" font-size="14" textLength="65.372">ToEnemy</text><line x1="1814.89" y1="922.434" x2="1925.103" y2="922.434" style="stroke:#181818;stroke-width:0.5;"/></g><!--class Enemy--><g class="entity" data-qualified-name="Enemy Data .ScriptableObjects..Enemy" id="ent0014" data-source-line="50"><rect x="124.58" y="372.71" width="290.845" height="121.453" fill="#F1F1F1" style="stroke:#181818;stroke-width:0.5;" rx="2.5" ry="2.5"/><ellipse cx="210.623" cy="392.843" rx="11" ry="11" fill="#ADD1B2" style="stroke:#181818;stroke-width:1;"/><path d="M213.592,398.483 Q213.014,398.78 212.373,398.921 Q211.733,399.077 211.03,399.077 Q208.53,399.077 207.202,397.437 Q205.889,395.78 205.889,392.655 Q205.889,389.53 207.202,387.874 Q208.53,386.218 211.03,386.218 Q211.733,386.218 212.373,386.374 Q213.03,386.53 213.592,386.827 L213.592,389.546 Q212.967,388.968 212.373,388.702 Q211.78,388.421 211.155,388.421 Q209.811,388.421 209.123,389.499 Q208.436,390.562 208.436,392.655 Q208.436,394.749 209.123,395.827 Q209.811,396.89 211.155,396.89 Q211.78,396.89 212.373,396.624 Q212.967,396.343 213.592,395.765 L213.592,398.483 Z " fill="#000"/><text x="229.123" y="388.849" fill="#000" font-size="12" textLength="114.258" font-style="italic">«ScriptableObject»</text><text x="262.125" y="404.674" fill="#000" font-size="14" textLength="48.255">Enemy</text><line x1="125.58" y1="412.976" x2="414.425" y2="412.976" style="stroke:#181818;stroke-width:0.5;"/><text x="130.58" y="429.971" fill="#000" font-size="14" textLength="156.543">+string Name { get; }</text><text x="130.58" y="446.268" fill="#000" font-size="14" textLength="147.479">+int MaxLife { get; }</text><text x="130.58" y="462.564" fill="#000" font-size="14" textLength="171.274">+Sprite Artwork { get; }</text><text x="130.58" y="478.861" fill="#000" font-size="14" textLength="278.845">+List&lt;EnemyActionSO> attackPatterns</text><line x1="125.58" y1="486.163" x2="414.425" y2="486.163" style="stroke:#181818;stroke-width:0.5;"/></g><!--class EnemyActionSO--><g class="entity" data-qualified-name="Enemy Data .ScriptableObjects..EnemyActionSO" id="ent0015" data-source-line="57"><rect x="22.78" y="585.63" width="426.436" height="105.156" fill="#F1F1F1" style="stroke:#181818;stroke-width:0.5;" rx="2.5" ry="2.5"/><ellipse cx="175.621" cy="605.763" rx="11" ry="11" fill="#A9DCDF" style="stroke:#181818;stroke-width:1;"/><path d="M175.731,601.107 L174.574,606.185 L176.903,606.185 L175.731,601.107 Z M174.246,598.872 L177.231,598.872 L180.59,611.263 L178.137,611.263 L177.371,608.2 L174.09,608.2 L173.34,611.263 L170.903,611.263 L174.246,598.872 Z " fill="#000"/><text x="195.119" y="601.769" fill="#000" font-size="12" textLength="114.258" font-style="italic">«ScriptableObject»</text><text x="196.121" y="617.594" fill="#000" font-size="14" textLength="112.253" font-style="italic">EnemyActionSO</text><line x1="23.78" y1="625.896" x2="448.216" y2="625.896" style="stroke:#181818;stroke-width:0.5;"/><text x="28.78" y="642.891" fill="#000" font-size="14" textLength="200.635">+string ActionName { get; }</text><text x="28.78" y="659.188" fill="#000" font-size="14" textLength="187.305">+Sprite IntentIcon { get; }</text><line x1="23.78" y1="666.489" x2="448.216" y2="666.489" style="stroke:#181818;stroke-width:0.5;"/><text x="28.78" y="683.484" fill="#000" font-size="14" textLength="414.436">+abstract void Execute(EnemyController, PlayerController)</text></g><!--class EnemyAttackAction--><g class="entity" data-qualified-name="Enemy Data .ScriptableObjects..EnemyAttackAction" id="ent0016" data-source-line="63"><rect x="53.89" y="849.84" width="364.215" height="80.594" fill="#F1F1F1" style="stroke:#181818;stroke-width:0.5;" rx="2.5" ry="2.5"/><ellipse cx="163.104" cy="865.84" rx="11" ry="11" fill="#ADD1B2" style="stroke:#181818;stroke-width:1;"/><path d="M166.073,871.481 Q165.495,871.778 164.854,871.918 Q164.214,872.074 163.511,872.074 Q161.011,872.074 159.682,870.434 Q158.37,868.778 158.37,865.653 Q158.37,862.528 159.682,860.871 Q161.011,859.215 163.511,859.215 Q164.214,859.215 164.854,859.371 Q165.511,859.528 166.073,859.824 L166.073,862.543 Q165.448,861.965 164.854,861.699 Q164.261,861.418 163.636,861.418 Q162.292,861.418 161.604,862.496 Q160.917,863.559 160.917,865.653 Q160.917,867.746 161.604,868.824 Q162.292,869.887 163.636,869.887 Q164.261,869.887 164.854,869.621 Q165.448,869.34 166.073,868.762 L166.073,871.481 Z " fill="#000"/><text x="183.604" y="870.687" fill="#000" font-size="14" textLength="137.286">EnemyAttackAction</text><line x1="54.89" y1="881.84" x2="417.105" y2="881.84" style="stroke:#181818;stroke-width:0.5;"/><text x="59.89" y="898.835" fill="#000" font-size="14" textLength="84.937">-int damage</text><line x1="54.89" y1="906.137" x2="417.105" y2="906.137" style="stroke:#181818;stroke-width:0.5;"/><text x="59.89" y="923.132" fill="#000" font-size="14" textLength="352.215">+void Execute(EnemyController, PlayerController)</text></g><!--class PlayerController--><g class="entity" data-qualified-name="Entities .MonoBehaviours..PlayerController" id="ent0020" data-source-line="74"><rect x="778.24" y="792.8" width="331.525" height="194.672" fill="#F1F1F1" style="stroke:#181818;stroke-width:0.5;" rx="2.5" ry="2.5"/><ellipse cx="883.384" cy="808.8" rx="11" ry="11" fill="#ADD1B2" style="stroke:#181818;stroke-width:1;"/><path d="M886.352,814.441 Q885.774,814.738 885.134,814.878 Q884.493,815.034 883.79,815.034 Q881.29,815.034 879.962,813.394 Q878.649,811.738 878.649,808.613 Q878.649,805.488 879.962,803.831 Q881.29,802.175 883.79,802.175 Q884.493,802.175 885.134,802.331 Q885.79,802.488 886.352,802.784 L886.352,805.503 Q885.727,804.925 885.134,804.659 Q884.54,804.378 883.915,804.378 Q882.571,804.378 881.884,805.456 Q881.196,806.519 881.196,808.613 Q881.196,810.706 881.884,811.784 Q882.571,812.847 883.915,812.847 Q884.54,812.847 885.134,812.581 Q885.727,812.3 886.352,811.722 L886.352,814.441 Z " fill="#000"/><text x="903.884" y="813.647" fill="#000" font-size="14" textLength="112.738">PlayerController</text><line x1="779.24" y1="824.8" x2="1108.765" y2="824.8" style="stroke:#181818;stroke-width:0.5;"/><text x="784.24" y="841.795" fill="#000" font-size="14" textLength="215.373">+static PlayerController Player</text><text x="784.24" y="858.092" fill="#000" font-size="14" textLength="149.42">+int Wisdom { get; }</text><text x="784.24" y="874.389" fill="#000" font-size="14" textLength="139.275">+int Health { get; }</text><text x="784.24" y="890.686" fill="#000" font-size="14" textLength="168.219">+int MaxHealth { get; }</text><text x="784.24" y="906.983" fill="#000" font-size="14" textLength="136.596">+int Armor { get; }</text><line x1="779.24" y1="914.284" x2="1108.765" y2="914.284" style="stroke:#181818;stroke-width:0.5;"/><text x="784.24" y="931.279" fill="#000" font-size="14" textLength="229.544">+void TakeDamage(int damage)</text><text x="784.24" y="947.576" fill="#000" font-size="14" textLength="187.093">+void Heal(int life_gained)</text><text x="784.24" y="963.873" fill="#000" font-size="14" textLength="319.525">-IEnumerator TakeDamageSteps(int damage)</text><text x="784.24" y="980.17" fill="#000" font-size="14" textLength="248.158">-IEnumerator GainLifeSteps(int life)</text></g><!--class EnemyController--><g class="entity" data-qualified-name="Entities .MonoBehaviours..EnemyController" id="ent0021" data-source-line="86"><rect x="504.76" y="809.1" width="238.481" height="162.078" fill="#F1F1F1" style="stroke:#181818;stroke-width:0.5;" rx="2.5" ry="2.5"/><ellipse cx="561.037" cy="825.1" rx="11" ry="11" fill="#ADD1B2" style="stroke:#181818;stroke-width:1;"/><path d="M564.006,830.741 Q563.427,831.038 562.787,831.178 Q562.146,831.334 561.443,831.334 Q558.943,831.334 557.615,829.694 Q556.302,828.038 556.302,824.913 Q556.302,821.788 557.615,820.131 Q558.943,818.475 561.443,818.475 Q562.146,818.475 562.787,818.631 Q563.443,818.788 564.006,819.084 L564.006,821.803 Q563.381,821.225 562.787,820.959 Q562.193,820.678 561.568,820.678 Q560.224,820.678 559.537,821.756 Q558.849,822.819 558.849,824.913 Q558.849,827.006 559.537,828.084 Q560.224,829.147 561.568,829.147 Q562.193,829.147 562.787,828.881 Q563.381,828.6 564.006,828.022 L564.006,830.741 Z " fill="#000"/><text x="581.537" y="829.947" fill="#000" font-size="14" textLength="117.428">EnemyController</text><line x1="505.76" y1="841.1" x2="742.241" y2="841.1" style="stroke:#181818;stroke-width:0.5;"/><text x="510.76" y="858.095" fill="#000" font-size="14" textLength="145.886">+Enemy enemyData</text><text x="510.76" y="874.392" fill="#000" font-size="14" textLength="139.275">+int Health { get; }</text><text x="510.76" y="890.689" fill="#000" font-size="14" textLength="168.219">+int MaxHealth { get; }</text><line x1="505.76" y1="897.991" x2="742.241" y2="897.991" style="stroke:#181818;stroke-width:0.5;"/><text x="510.76" y="914.986" fill="#000" font-size="14" textLength="115.322">+void Initialize()</text><text x="510.76" y="931.283" fill="#000" font-size="14" textLength="79.495">+void Act()</text><text x="510.76" y="947.579" fill="#000" font-size="14" textLength="226.481">+void takeDamage(int damage)</text><text x="510.76" y="963.876" fill="#000" font-size="14" textLength="73.336">-void Die()</text></g><!--class DeckManager--><g class="entity" data-qualified-name="Core Systems .MonoBehaviours . Statics..DeckManager" id="ent0024" data-source-line="101"><rect x="1372.81" y="42" width="242.385" height="227.266" fill="#F1F1F1" style="stroke:#181818;stroke-width:0.5;" rx="2.5" ry="2.5"/><ellipse cx="1441.47" cy="58" rx="11" ry="11" fill="#ADD1B2" style="stroke:#181818;stroke-width:1;"/><path d="M1444.439,63.641 Q1443.861,63.938 1443.22,64.078 Q1442.58,64.234 1441.876,64.234 Q1439.376,64.234 1438.048,62.594 Q1436.736,60.938 1436.736,57.813 Q1436.736,54.688 1438.048,53.031 Q1439.376,51.375 1441.876,51.375 Q1442.58,51.375 1443.22,51.531 Q1443.876,51.688 1444.439,51.984 L1444.439,54.703 Q1443.814,54.125 1443.22,53.859 Q1442.626,53.578 1442.001,53.578 Q1440.658,53.578 1439.97,54.656 Q1439.283,55.719 1439.283,57.813 Q1439.283,59.906 1439.97,60.984 Q1440.658,62.047 1442.001,62.047 Q1442.626,62.047 1443.22,61.781 Q1443.814,61.5 1444.439,60.922 L1444.439,63.641 Z " fill="#000"/><text x="1461.97" y="62.847" fill="#000" font-size="14" textLength="96.564">DeckManager</text><line x1="1373.81" y1="74" x2="1614.195" y2="74" style="stroke:#181818;stroke-width:0.5;"/><text x="1378.81" y="90.995" fill="#000" font-size="14" textLength="215.182">+static DeckManager Instance</text><text x="1378.81" y="107.292" fill="#000" font-size="14" textLength="212.7">+Queue&lt;Card> Deck { get; }</text><text x="1378.81" y="123.589" fill="#000" font-size="14" textLength="230.385">+Queue&lt;Card> Discard { get; }</text><text x="1378.81" y="139.886" fill="#000" font-size="14" textLength="192.849">+List&lt;Card> Hand { get; }</text><text x="1378.81" y="156.183" fill="#000" font-size="14" textLength="187.852">+int MaxHandSize { get; }</text><text x="1378.81" y="172.479" fill="#000" font-size="14" textLength="158.908">+int HandSize { get; }</text><line x1="1373.81" y1="179.781" x2="1614.195" y2="179.781" style="stroke:#181818;stroke-width:0.5;"/><text x="1378.81" y="196.776" fill="#000" font-size="14" textLength="150.521">+void InitializeDeck()</text><text x="1378.81" y="213.073" fill="#000" font-size="14" textLength="186.013">+void DrawStartingHand()</text><text x="1378.81" y="229.37" fill="#000" font-size="14" textLength="126.294">+void DrawCard()</text><text x="1378.81" y="245.667" fill="#000" font-size="14" textLength="204.142">+bool DiscardCard(int index)</text><text x="1378.81" y="261.964" fill="#000" font-size="14" textLength="182.294">-void RecycleDiscardPile()</text></g><!--class GameEvents--><g class="entity" data-qualified-name="Core Systems .MonoBehaviours . Statics..GameEvents" id="ent0025" data-source-line="115"><rect x="1649.75" y="62.31" width="484.507" height="186.641" fill="#F1F1F1" style="stroke:#181818;stroke-width:0.5;" rx="2.5" ry="2.5"/><ellipse cx="1843.214" cy="82.443" rx="11" ry="11" fill="#ADD1B2" style="stroke:#181818;stroke-width:1;"/><path d="M1846.183,88.083 Q1845.604,88.38 1844.964,88.521 Q1844.323,88.677 1843.62,88.677 Q1841.12,88.677 1839.792,87.037 Q1838.479,85.38 1838.479,82.255 Q1838.479,79.13 1839.792,77.474 Q1841.12,75.818 1843.62,75.818 Q1844.323,75.818 1844.964,75.974 Q1845.62,76.13 1846.183,76.427 L1846.183,79.146 Q1845.558,78.568 1844.964,78.302 Q1844.37,78.021 1843.745,78.021 Q1842.401,78.021 1841.714,79.099 Q1841.026,80.162 1841.026,82.255 Q1841.026,84.349 1841.714,85.427 Q1842.401,86.49 1843.745,86.49 Q1844.37,86.49 1844.964,86.224 Q1845.558,85.943 1846.183,85.365 L1846.183,88.083 Z " fill="#000"/><text x="1883.755" y="78.449" fill="#000" font-size="12" textLength="48.996" font-style="italic">«Static»</text><text x="1863.714" y="94.274" fill="#000" font-size="14" textLength="89.079">GameEvents</text><line x1="1650.75" y1="102.576" x2="2133.257" y2="102.576" style="stroke:#181818;stroke-width:0.5;"/><text x="1655.75" y="119.571" fill="#000" font-size="14" textLength="186.854">+static Action onTurnStart</text><text x="1655.75" y="135.868" fill="#000" font-size="14" textLength="256.751">+static Action&lt;Card> onCardPlayed</text><text x="1655.75" y="152.164" fill="#000" font-size="14" textLength="341.489">+static Action&lt;int, int> onPlayerHealthChanged</text><text x="1655.75" y="168.461" fill="#000" font-size="14" textLength="324.481">+static Action&lt;int> onPlayerWisdomChanged</text><text x="1655.75" y="184.758" fill="#000" font-size="14" textLength="472.507">+static Action&lt;EnemyController, int, int> onEnemyHealthChanged</text><text x="1655.75" y="201.055" fill="#000" font-size="14" textLength="373.919">+static Action&lt;EnemyController> onEnemySpawned</text><text x="1655.75" y="217.352" fill="#000" font-size="14" textLength="341.913">+static Action&lt;EnemyController> onEnemyDied</text><text x="1655.75" y="233.649" fill="#000" font-size="14" textLength="255.493">+static Action&lt;Card> onCardDrawn</text><line x1="1650.75" y1="240.951" x2="2133.257" y2="240.951" style="stroke:#181818;stroke-width:0.5;"/></g><!--class GameSaveData--><g class="entity" data-qualified-name="Save System .Data . Statics..GameSaveData" id="ent0027" data-source-line="129"><rect x="2190.12" y="348.27" width="257.759" height="170.344" fill="#F1F1F1" style="stroke:#181818;stroke-width:0.5;" rx="2.5" ry="2.5"/><ellipse cx="2260.014" cy="368.403" rx="11" ry="11" fill="#ADD1B2" style="stroke:#181818;stroke-width:1;"/><path d="M2262.983,374.043 Q2262.405,374.34 2261.764,374.481 Q2261.123,374.637 2260.42,374.637 Q2257.92,374.637 2256.592,372.997 Q2255.28,371.34 2255.28,368.215 Q2255.28,365.09 2256.592,363.434 Q2257.92,361.778 2260.42,361.778 Q2261.123,361.778 2261.764,361.934 Q2262.42,362.09 2262.983,362.387 L2262.983,365.106 Q2262.358,364.528 2261.764,364.262 Q2261.17,363.981 2260.545,363.981 Q2259.202,363.981 2258.514,365.059 Q2257.827,366.122 2257.827,368.215 Q2257.827,370.309 2258.514,371.387 Q2259.202,372.45 2260.545,372.45 Q2261.17,372.45 2261.764,372.184 Q2262.358,371.903 2262.983,371.325 L2262.983,374.043 Z " fill="#000"/><text x="2293.27" y="364.409" fill="#000" font-size="12" textLength="83.959" font-style="italic">«Serializable»</text><text x="2280.514" y="380.234" fill="#000" font-size="14" textLength="109.471">GameSaveData</text><line x1="2191.12" y1="388.536" x2="2446.879" y2="388.536" style="stroke:#181818;stroke-width:0.5;"/><text x="2196.12" y="405.531" fill="#000" font-size="14" textLength="124.414">+int playerHealth</text><text x="2196.12" y="421.828" fill="#000" font-size="14" textLength="153.357">+int playerMaxHealth</text><text x="2196.12" y="438.124" fill="#000" font-size="14" textLength="110.633">+int playerGold</text><text x="2196.12" y="454.421" fill="#000" font-size="14" textLength="224.745">+string equippedMajorArcanaID</text><text x="2196.12" y="470.718" fill="#000" font-size="14" textLength="245.759">+List&lt;string> currentDeckCardIDs</text><text x="2196.12" y="487.015" fill="#000" font-size="14" textLength="122.691">+int currentLevel</text><text x="2196.12" y="503.312" fill="#000" font-size="14" textLength="198.98">+string currentEventNodeID</text><line x1="2191.12" y1="510.614" x2="2446.879" y2="510.614" style="stroke:#181818;stroke-width:0.5;"/></g><!--class ProfileSaveData--><g class="entity" data-qualified-name="Save System .Data . Statics..ProfileSaveData" id="ent0028" data-source-line="139"><rect x="2483.03" y="364.56" width="289.942" height="137.75" fill="#F1F1F1" style="stroke:#181818;stroke-width:0.5;" rx="2.5" ry="2.5"/><ellipse cx="2567.813" cy="384.693" rx="11" ry="11" fill="#ADD1B2" style="stroke:#181818;stroke-width:1;"/><path d="M2570.781,390.333 Q2570.203,390.63 2569.563,390.771 Q2568.922,390.927 2568.219,390.927 Q2565.719,390.927 2564.391,389.287 Q2563.078,387.63 2563.078,384.505 Q2563.078,381.38 2564.391,379.724 Q2565.719,378.068 2568.219,378.068 Q2568.922,378.068 2569.563,378.224 Q2570.219,378.38 2570.781,378.677 L2570.781,381.396 Q2570.156,380.818 2569.563,380.552 Q2568.969,380.271 2568.344,380.271 Q2567,380.271 2566.313,381.349 Q2565.625,382.412 2565.625,384.505 Q2565.625,386.599 2566.313,387.677 Q2567,388.74 2568.344,388.74 Q2568.969,388.74 2569.563,388.474 Q2570.156,388.193 2570.781,387.615 L2570.781,390.333 Z " fill="#000"/><text x="2602.272" y="380.699" fill="#000" font-size="12" textLength="83.959" font-style="italic">«Serializable»</text><text x="2588.313" y="396.524" fill="#000" font-size="14" textLength="111.877">ProfileSaveData</text><line x1="2484.03" y1="404.826" x2="2771.972" y2="404.826" style="stroke:#181818;stroke-width:0.5;"/><text x="2489.03" y="421.821" fill="#000" font-size="14" textLength="277.942">+List&lt;string> unlockedMajorArcanaIDs</text><text x="2489.03" y="438.118" fill="#000" font-size="14" textLength="277.204">+List&lt;string> unlockedBlessedCardIDs</text><text x="2489.03" y="454.414" fill="#000" font-size="14" textLength="198.488">+bool hasBeatenGameOnce</text><text x="2489.03" y="470.711" fill="#000" font-size="14" textLength="150.158">+float masterVolume</text><text x="2489.03" y="487.008" fill="#000" font-size="14" textLength="130.416">+bool isFullScreen</text><line x1="2484.03" y1="494.31" x2="2771.972" y2="494.31" style="stroke:#181818;stroke-width:0.5;"/></g><!--class SaveManager--><g class="entity" data-qualified-name="Save System .Data . Statics..SaveManager" id="ent0029" data-source-line="147"><rect x="2320.03" y="70.46" width="301.946" height="170.344" fill="#F1F1F1" style="stroke:#181818;stroke-width:0.5;" rx="2.5" ry="2.5"/><ellipse cx="2418.888" cy="90.593" rx="11" ry="11" fill="#ADD1B2" style="stroke:#181818;stroke-width:1;"/><path d="M2421.857,96.233 Q2421.279,96.53 2420.638,96.671 Q2419.997,96.827 2419.294,96.827 Q2416.794,96.827 2415.466,95.187 Q2414.154,93.53 2414.154,90.405 Q2414.154,87.28 2415.466,85.624 Q2416.794,83.968 2419.294,83.968 Q2419.997,83.968 2420.638,84.124 Q2421.294,84.28 2421.857,84.577 L2421.857,87.296 Q2421.232,86.718 2420.638,86.452 Q2420.044,86.171 2419.419,86.171 Q2418.075,86.171 2417.388,87.249 Q2416.7,88.312 2416.7,90.405 Q2416.7,92.499 2417.388,93.577 Q2418.075,94.64 2419.419,94.64 Q2420.044,94.64 2420.638,94.374 Q2421.232,94.093 2421.857,93.515 L2421.857,96.233 Z " fill="#000"/><text x="2462.755" y="86.599" fill="#000" font-size="12" textLength="48.996" font-style="italic">«Static»</text><text x="2439.388" y="102.424" fill="#000" font-size="14" textLength="95.73">SaveManager</text><line x1="2321.03" y1="110.726" x2="2620.976" y2="110.726" style="stroke:#181818;stroke-width:0.5;"/><line x1="2321.03" y1="118.726" x2="2620.976" y2="118.726" style="stroke:#181818;stroke-width:0.5;"/><text x="2326.03" y="135.721" fill="#000" font-size="14" textLength="270.929">+static void SaveRun(GameSaveData)</text><text x="2326.03" y="152.018" fill="#000" font-size="14" textLength="289.946">+static void SaveProfile(ProfileSaveData)</text><text x="2326.03" y="168.314" fill="#000" font-size="14" textLength="240.769">+static GameSaveData LoadRun()</text><text x="2326.03" y="184.611" fill="#000" font-size="14" textLength="259.786">+static ProfileSaveData LoadProfile()</text><text x="2326.03" y="200.908" fill="#000" font-size="14" textLength="188.139">+static bool HasSaveRun()</text><text x="2326.03" y="217.205" fill="#000" font-size="14" textLength="204.75">+static bool HasSaveProfile()</text><text x="2326.03" y="233.502" fill="#000" font-size="14" textLength="204.429">+static void DeleteSaveFile()</text></g><!--reverse link Card to Major--><g class="link" data-entity-1="ent0002" data-entity-2="ent0003" id="lnk8" data-source-line="41" data-link-type="extension"><path d="M1432.14,499.428 C1401.87,531.228 1375.84,558.58 1346.36,589.55" style="stroke:#181818;stroke-width:1;" fill="none" id="Card-backto-Major" codeLine="41"/><polygon points="1444.55,486.39,1427.794,495.291,1436.485,503.565,1444.55,486.39" fill="none" style="stroke:#181818;stroke-width:1;stroke-linejoin:miter;stroke-miterlimit:10;"/></g><!--reverse link Card to Minor--><g class="link" data-entity-1="ent0002" data-entity-2="ent0005" id="lnk9" data-source-line="42" data-link-type="extension"><path d="M1555.861,499.427 C1583.451,528.407 1605.42,551.49 1633.61,581.12" style="stroke:#181818;stroke-width:1;" fill="none" id="Card-backto-Minor" codeLine="42"/><polygon points="1543.45,486.39,1551.516,503.564,1560.207,495.29,1543.45,486.39" fill="none" style="stroke:#181818;stroke-width:1;stroke-linejoin:miter;stroke-miterlimit:10;"/></g><!--reverse link Major to Hermit--><g class="link" data-entity-1="ent0003" data-entity-2="ent0004" id="lnk10" data-source-line="43" data-link-type="extension"><path d="M1292.845,704.963 C1287.345,749.323 1281.42,797.09 1275.92,841.4" style="stroke:#181818;stroke-width:1;" fill="none" id="Major-backto-Hermit" codeLine="43"/><polygon points="1295.06,687.1,1286.891,704.225,1298.8,705.701,1295.06,687.1" fill="none" style="stroke:#181818;stroke-width:1;stroke-linejoin:miter;stroke-miterlimit:10;"/></g><!--reverse link Minor to Sword--><g class="link" data-entity-1="ent0005" data-entity-2="ent0006" id="lnk11" data-source-line="44" data-link-type="extension"><path d="M1659.852,712.16 C1642.392,759.08 1624.2,807.97 1608.73,849.55" style="stroke:#181818;stroke-width:1;" fill="none" id="Minor-backto-Sword" codeLine="44"/><polygon points="1666.13,695.29,1654.229,710.067,1665.476,714.252,1666.13,695.29" fill="none" style="stroke:#181818;stroke-width:1;stroke-linejoin:miter;stroke-miterlimit:10;"/></g><!--link Minor to TargetType--><g class="link" data-entity-1="ent0005" data-entity-2="ent0007" id="lnk12" data-source-line="45" data-link-type="dependency"><path d="M1748.36,695.15 C1764.89,711.85 1782.04,730.78 1796,749.8 C1819.01,781.15 1837.147,816.058 1850.627,844.968" style="stroke:#181818;stroke-width:1;" fill="none" id="Minor-to-TargetType" codeLine="45"/><polygon points="1852.74,849.5,1852.562,839.653,1850.627,844.968,1845.311,843.034,1852.74,849.5" fill="#181818" style="stroke:#181818;stroke-width:1;stroke-linejoin:miter;stroke-miterlimit:10;"/></g><!--reverse link EnemyActionSO to EnemyAttackAction--><g class="link" data-entity-1="ent0015" data-entity-2="ent0016" id="lnk17" data-source-line="68" data-link-type="extension"><path d="M236,708.99 C236,756.17 236,806.85 236,849.71" style="stroke:#181818;stroke-width:1;" fill="none" id="EnemyActionSO-backto-EnemyAttackAction" codeLine="68"/><polygon points="236,690.99,230,708.99,242,708.99,236,690.99" fill="none" style="stroke:#181818;stroke-width:1;stroke-linejoin:miter;stroke-miterlimit:10;"/></g><!--reverse link Enemy to EnemyActionSO--><g class="link" data-entity-1="ent0014" data-entity-2="ent0015" id="lnk18" data-source-line="69" data-link-type="composition"><path d="M257.955,506.285 C253.115,535.135 249.36,557.53 244.71,585.25" style="stroke:#181818;stroke-width:1;" fill="none" id="Enemy-backto-EnemyActionSO" codeLine="69"/><polygon points="259.94,494.45,255.002,499.705,257.955,506.285,262.892,501.029,259.94,494.45" fill="#181818" style="stroke:#181818;stroke-width:1;stroke-linejoin:miter;stroke-miterlimit:10;"/><text x="250.417" y="514.018" fill="#000" font-size="13">1</text><text x="207.556" y="574.579" fill="#000" font-size="13" textLength="36.563">many</text></g><!--link EnemyController to Enemy--><g class="link" data-entity-1="ent0021" data-entity-2="ent0014" id="lnk22" data-source-line="96" data-link-type="dependency"><path d="M594.82,808.66 C568.32,742.86 524.58,649.89 467,581.61 C439.13,548.57 406.573,521.526 372.463,497.416" style="stroke:#181818;stroke-width:1;" fill="none" id="EnemyController-to-Enemy" codeLine="96"/><polygon points="368.38,494.53,373.421,502.991,372.463,497.416,378.038,496.458,368.38,494.53" fill="#181818" style="stroke:#181818;stroke-width:1;stroke-linejoin:miter;stroke-miterlimit:10;"/><text x="541" y="642.767" fill="#000" font-size="13" textLength="69.748">reads data</text></g><!--link SaveManager to GameSaveData--><g class="link" data-entity-1="ent0029" data-entity-2="ent0027" id="lnk30" data-source-line="157" data-link-type="dependency"><path d="M2424.36,241.26 C2405.69,275.15 2386.634,309.721 2367.964,343.591" style="stroke:#181818;stroke-width:1;stroke-dasharray:7,7;" fill="none" id="SaveManager-to-GameSaveData" codeLine="157"/><polygon points="2365.55,347.97,2373.398,342.019,2367.964,343.591,2366.392,338.157,2365.55,347.97" fill="#181818" style="stroke:#181818;stroke-width:1;stroke-linejoin:miter;stroke-miterlimit:10;"/><text x="2391" y="314.337" fill="#000" font-size="13" textLength="29.783">uses</text></g><!--link SaveManager to ProfileSaveData--><g class="link" data-entity-1="ent0029" data-entity-2="ent0028" id="lnk31" data-source-line="158" data-link-type="dependency"><path d="M2519.17,241.26 C2541.62,280.69 2565.497,322.635 2586.647,359.795" style="stroke:#181818;stroke-width:1;stroke-dasharray:7,7;" fill="none" id="SaveManager-to-ProfileSaveData" codeLine="158"/><polygon points="2589.12,364.14,2588.144,354.34,2586.647,359.795,2581.192,358.297,2589.12,364.14" fill="#181818" style="stroke:#181818;stroke-width:1;stroke-linejoin:miter;stroke-miterlimit:10;"/><text x="2559" y="314.337" fill="#000" font-size="13" textLength="29.783">uses</text></g><!--link Minor to PlayerController--><g class="link" data-entity-1="ent0005" data-entity-2="ent0020" id="lnk32" data-source-line="162" data-link-type="dependency"><path d="M1470.68,691.04 C1464.72,692.32 1458.82,693.58 1453,694.8 C1319.04,722.85 1276.74,698.13 1150,749.8 C1122.61,760.96 1099.351,773.45 1073.791,789.68" style="stroke:#181818;stroke-width:1;stroke-dasharray:7,7;" fill="none" id="Minor-to-PlayerController" codeLine="162"/><polygon points="1069.57,792.36,1079.312,790.912,1073.791,789.68,1075.024,784.159,1069.57,792.36" fill="#181818" style="stroke:#181818;stroke-width:1;stroke-linejoin:miter;stroke-miterlimit:10;"/><text x="1224" y="737.867" fill="#000" font-size="13" textLength="55.44">modifies</text></g><!--link Minor to EnemyController--><g class="link" data-entity-1="ent0005" data-entity-2="ent0021" id="lnk33" data-source-line="163" data-link-type="dependency"><path d="M1470.5,691.88 C1464.62,692.91 1458.77,693.89 1453,694.8 C1376.81,706.8 830.9,717.18 761,749.8 C731.95,763.35 709.099,782.242 687.509,805.282" style="stroke:#181818;stroke-width:1;stroke-dasharray:7,7;" fill="none" id="Minor-to-EnemyController" codeLine="163"/><polygon points="684.09,808.93,693.163,805.098,687.509,805.282,687.325,799.628,684.09,808.93" fill="#181818" style="stroke:#181818;stroke-width:1;stroke-linejoin:miter;stroke-miterlimit:10;"/><text x="927" y="737.867" fill="#000" font-size="13" textLength="55.44">modifies</text></g><!--link EnemyActionSO to PlayerController--><g class="link" data-entity-1="ent0015" data-entity-2="ent0020" id="lnk34" data-source-line="164" data-link-type="dependency"><path d="M449.61,681.97 C588.32,710.11 746.07,742.97 761,749.8 C785.69,761.1 806.107,773.33 828.747,789.45" style="stroke:#181818;stroke-width:1;stroke-dasharray:7,7;" fill="none" id="EnemyActionSO-to-PlayerController" codeLine="164"/><polygon points="832.82,792.35,827.809,783.871,828.747,789.45,823.168,790.388,832.82,792.35" fill="#181818" style="stroke:#181818;stroke-width:1;stroke-linejoin:miter;stroke-miterlimit:10;"/><text x="725" y="737.867" fill="#000" font-size="13" textLength="55.44">modifies</text></g><!--link EnemyActionSO to EnemyController--><g class="link" data-entity-1="ent0015" data-entity-2="ent0021" id="lnk35" data-source-line="165" data-link-type="dependency"><path d="M359.08,691.16 C394.36,708.02 432.14,728.05 465,749.8 C491.01,767.02 513.518,784.877 537.008,805.437" style="stroke:#181818;stroke-width:1;stroke-dasharray:7,7;" fill="none" id="EnemyActionSO-to-EnemyController" codeLine="165"/><polygon points="540.77,808.73,536.632,799.793,537.008,805.437,531.363,805.812,540.77,808.73" fill="#181818" style="stroke:#181818;stroke-width:1;stroke-linejoin:miter;stroke-miterlimit:10;"/><text x="448" y="737.867" fill="#000" font-size="13" textLength="55.44">modifies</text></g><!--reverse link DeckManager to Card--><g class="link" data-entity-1="ent0024" data-entity-2="ent0002" id="lnk36" data-source-line="166" data-link-type="aggregation"><path d="M1494,281.61 C1494,320.14 1494,349.36 1494,380.68" style="stroke:#181818;stroke-width:1;" fill="none" id="DeckManager-backto-Card" codeLine="166"/><polygon points="1494,269.61,1490,275.61,1494,281.61,1498,275.61,1494,269.61" fill="none" style="stroke:#181818;stroke-width:1;stroke-linejoin:miter;stroke-miterlimit:10;"/><text x="1495" y="314.337" fill="#000" font-size="13" textLength="59.858">manages</text></g><?plantuml-src hLVVS-8s47xdhz3mq98stBIlQOOP0hc4cUH2Oze-TeIz93faYKeo2NVD_zwLv80jouR9b8UGaRxz_UrgqMicDbJHdAISQZqsHh5bOM2MIf6mRq1-wUazP4FJDNs2nEmu40MfeUA9GwzNdfF-3Ss1JAcXP92aYcqCNN9uM7v5g3xha-yzWX_tXowrKJGrtYoPK9MHoyjGQ3GgPUpdPu8YJ3mvy1ThwJjv0lCRUOj3fg2TEYP539bi53FWa6DbweYtNip9U_fLgff3Uy1MiemanT9QNC8SqMmBWxDMw1z2dmuUfmO1rwiLPgI4bGvwlsv1vSpK73lkpobk7B4UfeU983rC6F8NqvdC9rARM14i0kKyw17-APY2B0PSK8LdYzq6odzZe7hQvfpkR7K7zXzG4ocCafo3EYVN0lBTuI2Iq-H58YCFmGoTgndDaUVZN1R2X7dwe3aGHLwDxc1o8Rscoe5JL9NsVVFlSEZ96PxPYhWpJrrtwDdYJrt5tAcBjt8u78ugNlNUAatkd3YjotqklS2ftTtMsOugzFMEhQ2ZdR6LCP9r3777jBbqlbXAutXx615g38OrnozGGdUGkoPtSYnUe2sYqkMPC22C7RZ7ENtz2YbEvq70g7CIaYv2QH-22zZxrKBlaDWVinaap7AiuS01IFg_zibFYEddLEpwTUc0VOOP1feCxgMGL_1CjqmMoXEl4cteN50UQbZQn0GDLvrWRPIy1ShDSmTXkm5ZbTkXsRnqgL_GDKnTKGQ7-ZGcjBNWxZdsnjzFb0d8pYgbdLtZZ0553LewQ4mCR7HKRLtY1lNPfZlWhPasVhKat1SPx5yxEFw_7Be4p0HIWd9SLwBFL_FGTETrw55J1li7Rp_ImYZjeFJHNU1AH3EDsZ30AcKdKW59Tjf0tg0j-O4aZemD0ayXNTzJWHgYtArUpmGUYhJQkRyNKC2bVGf63XhBNGt3T6hVZRQvwL6tL6HTPS9hjpIszKh7VL18wtEpRbD5Np1Tok1mjShY2FSALs-MKlBt2DsbTOQ935uRDN-4T9ToAC5pnY6sSTazztgBKrlRfy0LfF40k2gLWrQAHQ64yxmDKsPO2lljvb3M2aNtpsr2BToFBDyWasTSoBlb3YBbOdP4f37qgxRTvMcc0prxwMH3NyG7vB0tivDIQGaXoWfMcpAXs_Uc90EtpBHsegssXJiKrXkKuwXz_8EgMrvjAWM9NktdMVJsHlAikKZOpNYpWSpjSMELOkFFfc6FUko8f8LIo4tRGZO3iwaEB9M0EzW2RzegRns_lyWCIaEr1fWhkSBUE2qhDUSAmMMw3YBHnz1N7BI6h1cEQ-rdgg-0uXPbA_LG7uGhBgaXESL2gpybnsSjb6RwSy4vBdG08l9304DydxFTlUv_So7yiH23AcVEEh1b8WT1GYCYDHRUIPfPCn5SM1eBVRSIWRiKt5BzxlWHI8ScFt-1Wt76FrTdv_xvhARpqwTHFQeBKcZGKLmOLGd5Klr89afgFPoNdJs53U1e5oakYJt_OyOf27Uz2vBBZAtggF1rhu3g2-qnbKrqX-hgMovn2NQ_uF3U7Ud_0000?></g></svg>